<svg xmlns="http://www.w3.org/2000/svg" height="800" width="1200" viewBox="-11.493675 -16.3118 99.61185 97.8708">
    <path
     d="m 98.900738,76.4341 a 1.8144914,1.8144914 0 0 0 1.829612,-1.918825 c 0,-1.360869 -0.821057,-2.011061 -2.50551,-2.011061 h -2.721737 v 7.124903 h 1.023676 v -3.105805 h 1.258047 l 0.02873,0.0378 1.952091,3.068003 h 1.094743 l -2.100274,-3.17536 z m -1.183955,-0.7137 h -1.18698 v -2.408738 h 1.504516 c 0.777207,0 1.663283,0.127015 1.663283,1.144642 0,1.170347 -0.896661,1.264096 -1.986868,1.264096 M 72.197471,67.50529 H 57.681539 V 44.772735 c 0,-5.420794 -0.09677,-12.399025 -7.549796,-12.399025 -7.560383,0 -8.717121,5.906169 -8.717121,12.004373 V 67.503778 H 26.89869 V 20.756427 h 13.935295 v 6.388523 h 0.195057 a 15.271969,15.271969 0 0 1 13.749311,-7.551309 c 14.712501,0 17.425166,9.677288 17.425166,22.266835 z M 10.51988,14.366393 A 8.4237768,8.4237768 0 1 1 18.942146,5.9411053 8.4237768,8.4237768 0 0 1 10.51988,14.366393 M 17.777846,67.50529 H 3.2467926 V 20.756427 H 17.777846 Z m 61.656421,-83.466611 h -83.48173 a 7.1490966,7.1490966 0 0 0 -7.229236,7.0613973 V 74.928072 a 7.1536328,7.1536328 0 0 0 7.229236,7.068957 h 83.48173 a 7.1687536,7.1687536 0 0 0 7.257968,-7.068957 V -8.905972 a 7.1642174,7.1642174 0 0 0 -7.257968,-7.061397"
     id="path2"
     style="stroke-width:1.51208" />
  <path
     d="m 96.969307,68.649131 a 6.6270004,6.6270004 0 1 0 0.1275,0 h -0.1275 m 0,12.495001 a 5.8110004,5.8110004 0 1 1 5.713503,-5.907001 v 0.0975 a 5.6865002,5.6865002 0 0 1 -5.562003,5.806501 h -0.15"
     id="path4"
     style="stroke-width:1.5" />
</svg>
